<svg version="1.2" xmlns="http://www.w3.org/2000/svg" viewBox="0 0 2048 2048" width="2048" height="2048">
	<title>alyxlib_logo_shadows_custom</title>
	<style>
		.s0 { opacity: .7;fill: #6c6f93 } 
		.s1 { fill: #232530 } 
		.s2 { fill: #09f7a0 } 
	</style>
	<g id="clipped-shadows">
		<path id="Path 0" class="s0" d="m1140.2 551.5l-147.2 373.5 37 58.5c2.2-5.4 73.6-186.3 160-405.5 86.5-219.2 157.4-398.8 157.6-399.3 0.2-0.4-13.2-0.7-29.9-0.7h-30.3zm-1005.6-295.3c0.6 0.7 156.1 251.5 345.4 557.3 189.4 305.8 346 558.7 348 562l3.6 6c-60 170.5-77.5 220.6-77.5 221.3-0.1 0.9 6.5 1.2 29.7 1.2h29.7c60.5-171.7 78-222 77.9-222.5 0-0.6-156.8-254.2-348.5-563.7l-348.4-562.8c-54.8 0-60.7 0.3-59.9 1.3zm495 1.6c1 1.6 105 165.4 230.9 363.9 126 198.6 229.3 360.7 229.7 360.3 0.4-0.3 4.9-11.4 10.1-24.6 5.2-13.2 10.4-26.4 11.6-29.2 1.2-2.9 1.8-5.1 1.4-4.9-0.5 0.2-96.2-150-212.8-333.7l-212-334.2-60.8-0.5z"/>
		<path id="Path 1" class="s1" d="m1347.7 178.7c-0.3 0.5-71.7 181.2-158.7 401.8-87 220.5-158.4 401.4-158.6 402-0.3 0.5 7.7 13.8 17.6 29.5 10 15.7 18.4 28.6 18.8 28.7 0.4 0.2 77-193 170.2-429.3 93.2-236.3 169.6-430.5 169.7-431.5 0.3-1.8-1-1.9-29.2-1.9-16.1 0-29.6 0.3-29.8 0.7zm-1152.7 76.8c0 0.3 156.4 253.1 347.6 561.7 191.2 308.7 348 562 348.4 562.8 0.6 1-12.3 38.9-37.5 110.5-21 59.9-38.5 110-38.9 111.2l-0.6 2.3h60c2.9-8.9 20.5-59 40.9-117l37.2-105.5-697.2-1126c-46.4-0.4-59.9-0.3-59.9 0zm375.1 3.2c1.3 2.1 113.4 178.8 249.2 392.8 135.7 213.9 247.1 389.1 247.5 389.2 0.4 0.2 5.6-12.2 11.6-27.5 6.1-15.2 11-28.4 11-29.2 0-0.8-103.8-165.2-230.7-365.3l-230.7-363.7h-60.3z"/>
		<path id="Path 2" class="s2" d="m1260.7 550.7c-80.6 204.5-157.1 398.5-169.9 431-12.8 32.6-23.5 59.3-23.8 59.3-0.3 0-112.8-176.8-250-393l-249.5-393.1c-242.2 0.1-312.5 0.3-312.5 0.6 0 0.3 156.7 253.5 348.2 562.7 191.5 309.3 348.2 562.7 348.2 563.3 0 0.5-17.5 50.8-39 111.8l-38.9 110.7h-271.5v265l465.4-0.5c397.9-1012.2 518-1317.5 523.6-1331.5l10.1-25.5c54.5 17.7 107.3 34.8 152.4 49.6l82 26.8c1.4-4.2 19.1-63.2 40.1-133.9 21-70.7 37.9-128.8 37.6-129.1-0.4-0.4-113.9-33.3-252.2-73.3-138.3-39.9-252-72.6-252.6-72.6-0.6 0-67.1 167.3-147.7 371.7z"/>
	</g>
</svg>